<?xml version="1.0" standalone="no"?>
<!DOCTYPE svg PUBLIC "-//W3C//DTD SVG 20010904//EN"
 "http://www.w3.org/TR/2001/REC-SVG-20010904/DTD/svg10.dtd">
<svg version="1.0" xmlns="http://www.w3.org/2000/svg"
 width="225.000000pt" height="225.000000pt" viewBox="0 0 225.000000 225.000000"
 preserveAspectRatio="xMidYMid meet">

<g transform="translate(0.000000,225.000000) scale(0.100000,-0.100000)"
fill="#000000" stroke="none">
<path d="M1079 1818 c-23 -40 -81 -140 -129 -223 -279 -481 -701 -1217 -706
-1230 -6 -13 90 -15 885 -15 490 0 891 2 891 5 0 2 -104 183 -231 402 -703
1208 -659 1133 -664 1133 -2 0 -23 -33 -46 -72z m292 -623 c128 -220 272 -467
320 -550 l87 -150 -323 -3 c-178 -1 -472 -1 -653 0 l-330 3 279 480 c154 264
300 515 325 559 25 43 50 74 54 70 5 -5 113 -189 241 -409z"/>
<path d="M1070 1290 l0 -140 50 0 50 0 0 140 0 140 -50 0 -50 0 0 -140z"/>
<path d="M1070 946 c0 -54 0 -54 -45 -80 -25 -15 -45 -29 -45 -33 0 -5 36 -68
46 -82 2 -2 24 9 50 24 l48 28 49 -27 c26 -16 50 -26 51 -24 11 15 46 77 46
81 0 4 -20 18 -45 33 -45 26 -45 26 -45 80 l0 54 -55 0 -55 0 0 -54z"/>
<path d="M740 707 c-58 -34 -110 -66 -117 -70 -8 -5 -4 -20 14 -52 l25 -45 31
19 c18 10 70 40 117 66 47 27 87 50 90 52 5 5 -42 93 -50 92 -3 0 -52 -28
-110 -62z"/>
<path d="M1366 718 c-14 -23 -24 -43 -23 -44 12 -9 236 -134 240 -134 4 0 16
19 28 42 20 40 21 42 3 55 -24 17 -210 123 -217 123 -3 0 -17 -19 -31 -42z"/>
</g>
</svg>
